<svg xmlns="http://www.w3.org/2000/svg" version="1.1" xmlns:xlink="http://www.w3.org/1999/xlink" viewBox="0 0 200 200"><rect width="200" height="200" fill="url('#gradient')"></rect><defs><linearGradient id="gradient" gradientTransform="rotate(300 0.5 0.5)"><stop offset="0%" stop-color="#08f236"></stop><stop offset="100%" stop-color="#00ffe7"></stop></linearGradient></defs><g><g fill="#383839" transform="matrix(1.4768763639814024,0,0,1.4768763639814024,22.415505324137115,110.93122866154849)" stroke="#00fee0" stroke-width="0.65"><path d="M8.87 0L6.36-5.02L4.50-5.02L4.50 0L1.07 0L1.07-14.22L6.67-14.22Q9.20-14.22 10.63-13.10Q12.05-11.97 12.05-9.92L12.05-9.92Q12.05-8.44 11.45-7.46Q10.85-6.48 9.57-5.88L9.57-5.88L12.54-0.15L12.54 0L8.87 0ZM4.50-11.57L4.50-7.67L6.67-7.67Q7.65-7.67 8.14-8.18Q8.63-8.69 8.63-9.61Q8.63-10.53 8.13-11.05Q7.64-11.57 6.67-11.57L6.67-11.57L4.50-11.57ZM19.08 0.20L19.08 0.20Q16.65 0.20 15.15-1.25Q13.64-2.71 13.64-5.03L13.64-5.03L13.64-5.30Q13.64-6.92 14.24-8.16Q14.84-9.40 16.00-10.08Q17.15-10.76 18.73-10.76L18.73-10.76Q20.96-10.76 22.25-9.38Q23.54-8.00 23.54-5.53L23.54-5.53L23.54-4.25L16.99-4.25Q17.17-3.36 17.76-2.85Q18.36-2.34 19.31-2.34L19.31-2.34Q20.87-2.34 21.75-3.44L21.75-3.44L23.25-1.66Q22.64-0.81 21.51-0.31Q20.38 0.20 19.08 0.20ZM18.71-8.22L18.71-8.22Q17.27-8.22 16.99-6.31L16.99-6.31L20.31-6.31L20.31-6.56Q20.33-7.35 19.91-7.79Q19.49-8.22 18.71-8.22ZM30.39-2.97L30.39-2.97Q30.39-3.39 29.95-3.64Q29.51-3.90 28.28-4.17Q27.05-4.44 26.25-4.89Q25.45-5.33 25.03-5.97Q24.61-6.60 24.61-7.42L24.61-7.42Q24.61-8.88 25.81-9.82Q27.01-10.76 28.96-10.76L28.96-10.76Q31.04-10.76 32.31-9.81Q33.58-8.87 33.58-7.32L33.58-7.32L30.28-7.32Q30.28-8.59 28.95-8.59L28.95-8.59Q28.43-8.59 28.08-8.31Q27.72-8.02 27.72-7.59L27.72-7.59Q27.72-7.15 28.15-6.88Q28.58-6.60 29.53-6.43Q30.47-6.25 31.18-6.01L31.18-6.01Q33.56-5.19 33.56-3.07L33.56-3.07Q33.56-1.62 32.28-0.71Q31.00 0.20 28.96 0.20L28.96 0.20Q27.60 0.20 26.53-0.29Q25.47-0.78 24.87-1.62Q24.28-2.46 24.28-3.39L24.28-3.39L27.35-3.39Q27.37-2.66 27.84-2.32Q28.31-1.98 29.04-1.98L29.04-1.98Q29.72-1.98 30.05-2.26Q30.39-2.53 30.39-2.97ZM38.57-10.57L38.57 0L35.27 0L35.27-10.57L38.57-10.57ZM35.08-13.29L35.08-13.29Q35.08-13.99 35.59-14.44Q36.09-14.89 36.90-14.89Q37.71-14.89 38.22-14.44Q38.73-13.99 38.73-13.29Q38.73-12.59 38.22-12.14Q37.71-11.69 36.90-11.69Q36.09-11.69 35.59-12.14Q35.08-12.59 35.08-13.29ZM40.19-5.36L40.19-5.36Q40.19-7.87 41.27-9.32Q42.35-10.76 44.30-10.76L44.30-10.76Q45.71-10.76 46.68-9.65L46.68-9.65L46.68-15L49.98-15L49.98 0L47.02 0L46.86-1.13Q45.84 0.20 44.28 0.20L44.28 0.20Q42.39 0.20 41.29-1.25Q40.19-2.70 40.19-5.36ZM43.49-5.76L43.48-5.16Q43.48-2.34 45.12-2.34L45.12-2.34Q46.21-2.34 46.68-3.26L46.68-3.26L46.68-7.29Q46.23-8.22 45.14-8.22L45.14-8.22Q43.61-8.22 43.49-5.76L43.49-5.76ZM56.96 0.20L56.96 0.20Q54.53 0.20 53.03-1.25Q51.52-2.71 51.52-5.03L51.52-5.03L51.52-5.30Q51.52-6.92 52.12-8.16Q52.72-9.40 53.88-10.08Q55.03-10.76 56.61-10.76L56.61-10.76Q58.84-10.76 60.13-9.38Q61.42-8.00 61.42-5.53L61.42-5.53L61.42-4.25L54.87-4.25Q55.05-3.36 55.64-2.85Q56.24-2.34 57.19-2.34L57.19-2.34Q58.75-2.34 59.63-3.44L59.63-3.44L61.13-1.66Q60.52-0.81 59.39-0.31Q58.26 0.20 56.96 0.20ZM56.59-8.22L56.59-8.22Q55.15-8.22 54.87-6.31L54.87-6.31L58.19-6.31L58.19-6.56Q58.21-7.35 57.79-7.79Q57.37-8.22 56.59-8.22ZM62.68-10.57L65.76-10.57L65.87-9.33Q66.96-10.76 68.89-10.76L68.89-10.76Q70.54-10.76 71.35-9.78Q72.17-8.79 72.20-6.81L72.20-6.81L72.20 0L68.90 0L68.90-6.67Q68.90-7.47 68.57-7.85Q68.25-8.22 67.40-8.22L67.40-8.22Q66.44-8.22 65.97-7.46L65.97-7.46L65.97 0L62.68 0L62.68-10.57ZM78.49-2.34L78.49-2.34Q79.18-2.34 79.56-2.72Q79.94-3.10 79.93-3.77L79.93-3.77L83.02-3.77Q83.02-2.03 81.77-0.92Q80.53 0.20 78.56 0.20L78.56 0.20Q76.26 0.20 74.93-1.25Q73.60-2.70 73.60-5.25L73.60-5.25L73.60-5.39Q73.60-6.99 74.19-8.22Q74.79-9.44 75.90-10.10Q77.01-10.76 78.54-10.76L78.54-10.76Q80.60-10.76 81.81-9.62Q83.02-8.48 83.02-6.52L83.02-6.52L79.93-6.52Q79.93-7.34 79.53-7.78Q79.13-8.22 78.46-8.22L78.46-8.22Q77.18-8.22 76.96-6.59L76.96-6.59Q76.89-6.07 76.89-5.17L76.89-5.17Q76.89-3.57 77.28-2.96Q77.66-2.34 78.49-2.34ZM87.88-10.57L87.88 0L84.58 0L84.58-10.57L87.88-10.57ZM84.38-13.29L84.38-13.29Q84.38-13.99 84.89-14.44Q85.40-14.89 86.21-14.89Q87.02-14.89 87.53-14.44Q88.04-13.99 88.04-13.29Q88.04-12.59 87.53-12.14Q87.02-11.69 86.21-11.69Q85.40-11.69 84.89-12.14Q84.38-12.59 84.38-13.29ZM99.15 0L95.86 0Q95.68-0.32 95.55-0.95L95.55-0.95Q94.64 0.20 93.01 0.20L93.01 0.20Q91.51 0.20 90.47-0.71Q89.42-1.61 89.42-2.98L89.42-2.98Q89.42-4.70 90.69-5.58Q91.96-6.46 94.38-6.46L94.38-6.46L95.40-6.46L95.40-7.01Q95.40-8.47 94.14-8.47L94.14-8.47Q92.97-8.47 92.97-7.31L92.97-7.31L89.68-7.31Q89.68-8.85 90.98-9.80Q92.29-10.76 94.31-10.76Q96.33-10.76 97.50-9.78Q98.67-8.79 98.70-7.07L98.70-7.07L98.70-2.39Q98.72-0.94 99.15-0.17L99.15-0.17L99.15 0ZM93.80-2.15L93.80-2.15Q94.41-2.15 94.82-2.41Q95.22-2.68 95.40-3.01L95.40-3.01L95.40-4.70L94.44-4.70Q92.72-4.70 92.72-3.15L92.72-3.15Q92.72-2.71 93.03-2.43Q93.33-2.15 93.80-2.15ZM103.99-15L103.99 0L100.69 0L100.69-15L103.99-15Z"></path></g></g></svg>